inDegrees=yes
name=ik_MT_012005D6_009-001_orientations
DataType=double
version=3
OpenSimVersion=4.2-2021-03-12-fcedec9
endheader
time	pelvis_tilt	pelvis_list	pelvis_rotation	pelvis_tx	pelvis_ty	pelvis_tz	hip_flexion_r	hip_adduction_r	hip_rotation_r	knee_angle_r	knee_angle_r_beta	ankle_angle_r	subtalar_angle_r	mtp_angle_r	hip_flexion_l	hip_adduction_l	hip_rotation_l	knee_angle_l	knee_angle_l_beta	ankle_angle_l	subtalar_angle_l	mtp_angle_l	lumbar_extension	lumbar_bending	lumbar_rotation	arm_flex_r	arm_add_r	arm_rot_r	elbow_flex_r	pro_sup_r	wrist_flex_r	wrist_dev_r	arm_flex_l	arm_add_l	arm_rot_l	elbow_flex_l	pro_sup_l	wrist_flex_l	wrist_dev_l
9.189999999999849	5.061917127966655	6.142945158428354	232.2473222368772	0	0.9399999999999999	0	7.290313617481115	0.1598890469711742	-25.74012744394222	0.06197798657738007	0.001081719929532133	4.062996232124391	0	0	26.49142332710815	-4.824179556581612	-24.853431166263	0.1360588551626024	0.002374674999081497	7.137705124650295	0	0	-23.96760626972532	6.2602976667173	-0.3251880442284595	0	-5.516532046956178	0	48.43843636028932	38.85492930776174	0	0	0	-5.516532046956178	0	48.43843636028932	38.85492930776174	0	0
9.199999999999848	4.778828182220838	6.317839981102529	232.915894854051	0	0.9399999999999999	0	6.981195148482144	0.3590711014855527	-25.89062267510903	0.06471901316639413	0.001129559868395138	4.271133214666629	0	0	26.49645268729579	-5.075934909828894	-25.66492757400984	0.1289185521774178	0.002250053202400046	7.306963220267896	0	0	-23.80493766321819	6.400225000259769	-0.4158525239475543	0	-5.51883662445467	0	48.45268513565994	38.86302281537622	0	0	0	-5.51883662445467	0	48.45268513565994	38.86302281537622	0	0
9.209999999999848	4.272793545969439	6.48674986104473	233.5201145707356	0	0.9399999999999999	0	6.497069939254622	0.7825347158774107	-25.97354145163735	0.06726693162985854	0.001174029434654947	4.530747701664007	0	0	26.34030473444715	-5.454365382551273	-26.4449806471277	0.1249345506530572	0.002180519258395479	7.352038368129079	0	0	-23.83043004356932	6.685561246289824	-0.2897642933865589	0	-5.524220316416428	0	48.48607418501399	38.8820523463544	0	0	0	-5.524220316416428	0	48.48607418501399	38.8820523463544	0	0
9.219999999999848	4.00234500017814	6.642853832411873	234.1807741414754	0	0.9399999999999999	0	6.191798834665765	0.9766230131310124	-26.14523920161256	0.07015519499527456	0.001224439140046189	4.733703035793486	0	0	26.28150407493737	-5.610081005112322	-27.19940210992839	0.120452838890605	0.002102298632015331	7.348174535282888	0	0	-23.64995641861883	6.807110943973081	-0.3573287673399982	0	-5.526266632089677	0	48.49870574517917	38.88921021523236	0	0	0	-5.526266632089677	0	48.49870574517917	38.88921021523236	0	0
9.229999999999848	3.537768677519182	6.752649964113977	234.7877161922555	0	0.9399999999999999	0	5.67451931862262	1.315977093505272	-26.26448032758817	0.07224968770131525	0.001260994933925604	4.998206390690867	0	0	26.01874592106293	-5.90090249584488	-27.87306750907746	0.1208610842625791	0.002109423857912308	7.233952980139586	0	0	-23.64494415045487	7.037818729622495	-0.2722378328769011	0	-5.52997275677626	0	48.52169432702581	38.90231259993977	0	0	0	-5.52997275677626	0	48.52169432702581	38.90231259993977	0	0
9.239999999999847	3.193646323775351	6.848415999940848	235.3712917520891	0	0.9399999999999999	0	5.235962486626409	1.553914490555505	-26.40242682831377	0.07511795315093564	0.001311055609842676	5.194782084463592	0	0	25.76209493498506	-6.074378477310353	-28.53008627431651	0.1219984244352788	0.002129274188641118	7.125649512705045	0	0	-23.52771068890616	7.153592516570003	-0.2376758479480894	0	-5.533691593501052	0	48.54474647886797	38.9154370913154	0	0	0	-5.533691593501052	0	48.54474647886797	38.9154370913154	0	0
9.249999999999847	2.977681433909113	6.985228176822105	235.9284679587221	0	0.9399999999999999	0	4.940696526487288	1.686827790815497	-26.55465030826593	0.07731471286962015	0.001349396299808905	5.323072732541601	0	0	25.53737007332186	-6.165298791009785	-29.1196996006344	0.1272386848037586	0.002220733985732863	7.024822502654901	0	0	-23.26498044271963	7.189403055131683	-0.2450955670090449	0	-5.53463578812819	0	48.55057462674306	38.91874072164036	0	0	0	-5.53463578812819	0	48.55057462674306	38.91874072164036	0	0
9.259999999999847	2.562934285590331	6.96132101948047	236.3840725415196	0	0.9399999999999999	0	4.349493282238853	1.923250788990069	-26.62153517853891	0.08256372867981769	0.00144100890818609	5.519212290516324	0	0	24.87270713871244	-6.672790661409758	-29.6145388105496	0.1312094352708934	0.002290036655159468	6.410136448211577	0	0	-23.2525453061911	7.243609988715452	-0.0904579962912383	0	-5.538475852674092	0	48.57435767318732	38.93226215047198	0	0	0	-5.538475852674092	0	48.57435767318732	38.93226215047198	0	0
9.269999999999847	2.286856905453813	6.985336909724436	236.8067830623643	0	0.9399999999999999	0	3.901204024875319	2.054803306029829	-26.68881520033763	0.0883593716148028	0.001542161959671528	5.668626305662146	0	0	24.38376982986631	-6.829006410730272	-30.0675974247077	0.1384434986829759	0.002416294879998363	6.15240437865329	0	0	-23.1085582050518	7.219251249769894	0.007290792763946922	0	-5.541661054221408	0	48.59406639596219	38.94345204135934	0	0	0	-5.541661054221408	0	48.59406639596219	38.94345204135934	0	0
9.279999999999847	2.00241034108104	6.962838733867941	237.1512405726324	0	0.9399999999999999	0	3.413572028516954	2.181632918988825	-26.72750950127519	0.09704846857845767	0.001693815310712347	5.768804850038967	0	0	23.8384322590834	-6.952023930286085	-30.38415029821974	0.1456054145909804	0.002541293893344001	5.85182999679572	0	0	-22.98371178024588	7.157954420841472	0.1637010439985544	0	-5.546017089484174	0	48.62100526749569	38.95873103924318	0	0	0	-5.546017089484174	0	48.62100526749569	38.95873103924318	0	0
9.289999999999846	1.733885666133463	6.895421166417749	237.4304346686095	0	0.9399999999999999	0	2.904444583734177	2.211723030345766	-26.74759076130687	0.1112524637632959	0.001941721793625195	5.816715708464719	0	0	23.34727603995404	-7.049326787599474	-30.58366916303412	0.1437575145496047	0.002509041953374255	5.349277550100811	0	0	-22.91574222200599	7.050464818402084	0.3191980003822514	0	-5.550254072681135	0	48.64717369137363	38.97354473170266	0	0	0	-5.550254072681135	0	48.64717369137363	38.97354473170266	0	0
9.299999999999846	1.53690402641515	6.838624499214131	237.6741439589058	0	0.9399999999999999	0	2.468571266381764	2.181207640805354	-26.82865019596366	0.1331029731745479	0.002323085126089551	5.772649371103569	0	0	22.95629893909884	-7.050637088832152	-30.72354183407761	0.1376212492743232	0.002401943920544796	4.669859782401621	0	0	-22.74399309346746	6.903052035958698	0.4853640162174115	0	-5.556334265585765	0	48.68449307356258	38.99449280733427	0	0	0	-5.556334265585765	0	48.68449307356258	38.99449280733427	0	0
9.309999999999846	1.323788818618129	6.711660941062234	237.8742833562568	0	0.9399999999999999	0	1.987742882073617	2.088623148097906	-26.93385481026284	0.1723232706424402	0.003007608450515866	5.670568995393986	0	0	22.48962779934075	-6.969210346714259	-30.74816381093039	0.1301257073062982	0.002271122033981346	4.033598191407955	0	0	-22.64852200551081	6.736750703497137	0.6417020824383188	0	-5.56413732615365	0	48.73215663774705	39.02107902470704	0	0	0	-5.56413732615365	0	48.73215663774705	39.02107902470704	0	0
9.319999999999846	1.136362992951748	6.525461994899168	238.0661758636125	0	0.9399999999999999	0	1.485256205018873	1.90660788781566	-27.07171591998664	0.2513431392096993	0.00438676533150771	5.520293912553033	0	0	21.95000063521513	-6.797229567335604	-30.61581244390784	0.1266235344374489	0.002209997586445909	3.53725205083862	0	0	-22.60663974950394	6.548863543774537	0.7411900697617736	0	-5.574799604514346	0	48.79706481800437	39.05712698869447	0	0	0	-5.574799604514346	0	48.79706481800437	39.05712698869447	0	0
9.329999999999846	1.01465528524594	6.382428162565563	238.2476647015791	0	0.9399999999999999	0	1.122080444043622	1.634810601377201	-27.29846531620219	0.4991980340567092	0.00871264931377236	5.413574025534226	0	0	21.46856002333894	-6.573180916885796	-30.3938874242983	0.1232080573102336	0.002150386265049445	3.120779796382893	0	0	-22.40310732847377	6.347051014410613	0.8223957720994868	0	-5.58257839598626	0	48.84395754631134	39.08286055058771	0	0	0	-5.58257839598626	0	48.84395754631134	39.08286055058771	0	0
9.339999999999845	0.8764947594330136	6.065793029719538	238.5418825434489	0	0.9399999999999999	0	0.8042115827331193	1.091941369831145	-27.71364124323712	1.21301970266427	0.02117118770305414	5.367025150164635	0	0	20.85620447217192	-6.230845014936058	-29.97454345601215	0.1253191027003455	0.002187230957765945	2.698736304602062	0	0	-22.41247370243692	6.139918819613979	0.7572611848520723	0	-5.595032080276003	0	48.91952810298078	39.12462256776189	0	0	0	-5.595032080276003	0	48.91952810298078	39.12462256776189	0	0
9.349999999999845	0.7932183580961402	5.814518627856804	238.8422174590577	0	0.9399999999999999	0	0.8118455722862434	0.3748270415356183	-28.17992305548436	2.492000186621623	0.04349360821686046	5.553648434690815	0	0	20.33511812682981	-5.874435366157049	-29.41592420107551	0.1346590872748732	0.002350244440676936	2.268025437948806	0	0	-22.31314980197673	5.958554297593598	0.6723360426851297	0	-5.6127190430867	0	49.02646824984472	39.18338652742359	0	0	0	-5.6127190430867	0	49.02646824984472	39.18338652742359	0	0
9.359999999999845	0.7142315388575466	5.538038645325364	239.2012915959097	0	0.9399999999999999	0	0.8703964144304734	-0.4008099866811378	-28.72071786249033	3.957123707724608	0.06906483760852018	5.680521374421047	0	0	19.82149359611659	-5.506657224431394	-28.79762016307253	0.147316858154335	0.002571164218486602	1.765041259958326	0	0	-22.1986460456191	5.800110019532229	0.5606356725237743	0	-5.630847577583982	0	49.13566546652838	39.24303835181396	0	0	0	-5.630847577583982	0	49.13566546652838	39.24303835181396	0	0
9.369999999999845	0.6814432631122265	5.202808182155596	239.6561909554223	0	0.9399999999999999	0	0.8828930627534366	-1.325960910754769	-29.30796566044828	5.53538532957794	0.09661069936772651	5.70257815834025	0	0	19.3273178506144	-5.043839791162022	-28.12544373482385	0.1646203881531396	0.002873167789183353	1.21890506628103	0	0	-22.11345978448727	5.634848724447121	0.3195171637339846	0	-5.639772345850561	0	49.18905280629921	39.27192136342318	0	0	0	-5.639772345850561	0	49.18905280629921	39.27192136342318	0	0
